<svg height="512pt" viewBox="0 -6 512 512" width="512pt" xmlns="http://www.w3.org/2000/svg"><path d="m261.242188 50.449219h66.945312v34.585937h-66.945312zm0 0" fill="#a2f9f9"/><path d="m247.230469 45.449219c0 2.75 2.25 5 5 5h84.964843c2.75 0 5-2.25 5-5v-32.949219c0-2.75-2.25-5-5-5h-84.964843c-2.75 0-5 2.25-5 5zm0 0" fill="#0481bf"/><path d="m352.609375 87.707031c0-.894531.035156-1.78125.066406-2.671875h-116.136719c-13.742187 0-24.929687 11.210938-24.929687 24.992188v78.539062c0 10.09375 6 19.144532 15.28125 23.050782 4.410156 1.855468 7.273437 6.183593 7.273437 10.972656v38.585937c0 4.945313-3.042968 9.371094-7.65625 11.125-9.621093 3.664063-16.085937 13.054688-16.085937 23.371094v47.144531h55.5625c2.863281 0 5.210937 2.347656 5.210937 5.222656v35.511719c0 2.871094-2.347656 5.21875-5.210937 5.21875h-12.289063v99.222657c0 2.871093-2.34375 5.21875-5.207031 5.21875h128.132813c-2.75 0-5-2.25-5-5v-44.035157l-25.8125-245.941406c-.398438-3.796875 2.394531-6.898437 6.199218-6.898437h25.644532c.101562-.914063.167968-1.835938.167968-2.769532v-47.671875c-15.382812-12.589843-25.210937-31.738281-25.210937-53.1875zm0 0" fill="#c7fffd"/><path d="m345.808594 198.234375c-.398438-3.796875 2.394531-6.898437 6.199218-6.898437h25.644532c.101562-.914063.167968-1.835938.167968-2.769532v-22.007812h-166.210937v22.007812c0 10.09375 6 19.144532 15.285156 23.050782 4.40625 1.855468 7.273438 6.183593 7.273438 10.972656v38.585937c0 4.945313-3.046875 9.371094-7.660157 11.125-9.621093 3.664063-16.085937 13.054688-16.085937 23.371094v24.800781h148.21875zm0 0" fill="#0481bf"/><path d="m226.894531 211.617188c-5.261719-2.214844-9.464843-6.085938-12.125-10.855469h94.371094c3.351563 0 6.09375 2.75 6.09375 6.105469v69.632812c0 3.359375-2.742187 6.109375-6.09375 6.109375h-94.992187c2.832031-4.613281 7.125-8.3125 12.359374-10.308594 4.613282-1.753906 7.660157-6.179687 7.660157-11.125v-38.585937c-.003907-4.792969-2.867188-9.117188-7.273438-10.972656zm0 0" fill="#75eae7"/><path d="m371.621094 488.210938c0 2.75 2.25 5 5 5h82.195312c2.75 0 5-2.25 5-5v-44.039063h-92.195312zm0 0" fill="#89c947"/><path d="m347.636719 215.613281 23.984375 228.558594h92.195312l23.988282-228.558594zm0 0" fill="#d5e962"/><path d="m483.429688 191.335938h-131.417969c-3.808594 0-6.601563 3.101562-6.199219 6.898437l1.820312 17.378906h140.175782l1.824218-17.378906c.394532-3.796875-2.394531-6.898437-6.203124-6.898437zm0 0" fill="#89c947"/><path d="m437.761719 363.914062c0 2.75-2.25 5-5 5h-30.078125c-2.75 0-5-2.25-5-5v-75.011718c0-2.75 2.25-5 5-5h30.078125c2.75 0 5 2.25 5 5zm0 0" fill="#fff"/><path d="m49.621094 388.769531v99.21875c0 2.871094 2.347656 5.222657 5.214844 5.222657h193.652343c2.863281 0 5.207031-2.351563 5.207031-5.222657v-99.21875zm0 0" fill="#ffb98a"/><path d="m253.695312 414.878906h-75.234374c-2.867188 0-5.210938 2.351563-5.210938 5.222656v35.511719c0 2.871094 2.34375 5.222657 5.210938 5.222657h75.234374zm0 0" fill="#fff"/><path d="m265.984375 342.816406h-228.648437c-2.867188 0-5.210938 2.347656-5.210938 5.222656v35.511719c0 2.871094 2.34375 5.21875 5.210938 5.21875h228.648437c2.863281 0 5.210937-2.347656 5.210937-5.21875v-35.511719c0-2.875-2.34375-5.222656-5.210937-5.222656zm0 0" fill="#fb8276"/><path d="m113.625 145.117188c1.691406-2.167969 4.460938-2.167969 6.152344 0l18.28125 23.425781c1.691406 2.167969 5.308594 3.664062 8.035156 3.324219l29.570312-3.683594c2.730469-.339844 4.679688 1.613281 4.339844 4.339844l-3.695312 29.433593c-.34375 2.730469 1.152344 6.339844 3.328125 8.023438l23.511719 18.222656c2.175781 1.6875 2.175781 4.441406 0 6.125l-23.511719 18.226563c-2.175781 1.683593-3.671875 5.292968-3.328125 8.019531l3.695312 29.4375c.339844 2.726562-1.613281 4.683593-4.339844 4.34375l-29.570312-3.6875c-2.730469-.339844-6.347656 1.152343-8.039062 3.320312l-18.28125 23.425781c-1.691407 2.167969-4.460938 2.167969-6.152344 0l-18.277344-23.421874c-1.691406-2.167969-5.308594-3.664063-8.035156-3.324219l-29.574219 3.683593c-2.726563.339844-4.679687-1.613281-4.335937-4.34375l3.695312-29.433593c.34375-2.726563-1.15625-6.335938-3.328125-8.019531l-23.515625-18.226563c-2.175781-1.683594-2.175781-4.4375 0-6.125l23.515625-18.222656c2.171875-1.683594 3.671875-5.292969 3.328125-8.023438l-3.695312-29.433593c-.34375-2.730469 1.609374-4.683594 4.339843-4.34375l29.570313 3.6875c2.726562.339843 6.34375-1.15625 8.035156-3.324219zm0 0" fill="#ffc502"/><path d="m156.28125 249.398438c0 8.347656-5.480469 15.117187-12.242188 15.117187-6.757812 0-12.234374-6.769531-12.234374-15.117187 0-8.34375 5.476562-15.109376 12.234374-15.109376 6.761719 0 12.242188 6.765626 12.242188 15.109376zm0 0" fill="#fff"/><path d="m101.597656 213.128906c0-8.347656-5.480468-15.113281-12.238281-15.113281-6.761719 0-12.242187 6.765625-12.242187 15.113281s5.480468 15.117188 12.242187 15.117188c6.757813 0 12.238281-6.769532 12.238281-15.117188zm0 0" fill="#fff"/><path d="m489.667969 87.707031c0 37.914063-30.683594 68.648438-68.527344 68.648438-37.847656 0-68.53125-30.734375-68.53125-68.648438 0-37.914062 30.6875-68.648437 68.53125-68.648437 37.84375-.003906 68.527344 30.734375 68.527344 68.648437zm0 0" fill="#ffc502"/><path d="m469.628906 87.707031c0-26.824219-21.710937-48.574219-48.488281-48.574219-26.78125 0-48.488281 21.75-48.488281 48.574219s21.707031 48.574219 48.488281 48.574219c26.777344 0 48.488281-21.75 48.488281-48.574219zm0 0" fill="#fcdb67"/><path d="m504.5 485.710938h-33.183594v-41.144532l15.789063-150.429687c.429687-4.121094-2.558594-7.808594-6.675781-8.242188-4.125-.433593-7.8125 2.558594-8.242188 6.675781l-15.125 144.101563h-78.6875l-22.414062-213.558594h123.515624l-3.722656 35.457031c-.433594 4.121094 2.558594 7.8125 6.675782 8.242188 4.136718.441406 7.8125-2.554688 8.242187-6.675781l6.417969-61.121094c.410156-3.921875-.832032-7.8125-3.414063-10.679687-2.578125-2.863282-6.3125-4.503907-10.25-4.503907h-98.105469v-28.980469c10.683594 5.738282 22.875 9.003907 35.820313 9.003907 41.921875 0 76.027344-34.160157 76.027344-76.148438s-34.105469-76.152343-76.027344-76.152343c-38.480469 0-70.351563 28.785156-75.332031 65.980468h-10.121094v-19.585937h1.507812c6.894532 0 12.5-5.605469 12.5-12.5v-32.949219c0-6.894531-5.605468-12.5-12.5-12.5h-84.964843c-6.890625 0-12.5 5.609375-12.5 12.5v32.949219c0 6.894531 5.609375 12.5 12.5 12.5h1.511719v19.585937h-17.203126c-17.882812 0-32.429687 14.578125-32.429687 32.492188v78.539062c0 13.121094 7.800781 24.878906 19.871094 29.960938 1.632812.6875 2.683593 2.28125 2.683593 4.0625v38.585937c0 1.816407-1.132812 3.472657-2.824218 4.117188-12.511719 4.761719-20.917969 16.972656-20.917969 30.378906v39.644531h-98.921875c-4.140625 0-7.5 3.359375-7.5 7.5 0 4.144532 3.359375 7.5 7.5 7.5h159.695312v30.953125h-224.070312v-30.953125h28.375c4.140625 0 7.5-3.355468 7.5-7.5 0-4.140625-3.359375-7.5-7.5-7.5h-30.664062c-7.007813 0-12.710938 5.707032-12.710938 12.722656v35.511719c0 7.011719 5.703125 12.71875 12.710938 12.71875h4.785156v89.441407h-34.621094c-4.140625 0-7.5 3.355468-7.5 7.5 0 4.140624 3.359375 7.5 7.5 7.5h497c4.144531 0 7.5-3.359376 7.5-7.5 0-4.144532-3.355469-7.5-7.5-7.5zm-22.472656-286.875-.976563 9.277343h-126.664062l-.972657-9.277343zm-60.886719-172.28125c33.648437 0 61.027344 27.433593 61.027344 61.152343s-27.378907 61.148438-61.027344 61.148438c-33.652344 0-61.03125-27.433594-61.03125-61.148438 0-33.71875 27.378906-61.152343 61.03125-61.152343zm-166.410156-11.554688h79.964843v27.949219h-79.964843zm65.957031 42.949219v19.585937h-51.945312v-19.585937zm-102.765625 237.722656c0-1.925781.328125-3.796875.925781-5.566406h90.292969c7.496094 0 13.59375-6.101563 13.59375-13.605469v-69.632812c0-7.503907-6.097656-13.605469-13.59375-13.605469h-89.382813c-.417968-1.503907-.648437-3.078125-.648437-4.695313v-14.507812h97.890625c4.144531 0 7.5-3.355469 7.5-7.5 0-4.140625-3.355469-7.5-7.5-7.5h-97.890625v-49.03125c0-9.644532 7.820313-17.492188 17.433594-17.492188h108.738281c1.285156 20.496094 10.695312 38.816406 25.042969 51.753906v14.769532h-17.324219c-4.144531 0-7.5 3.359375-7.5 7.5 0 4.144531 3.355469 7.5 7.5 7.5h17.320312v9.773437h-18.308593c-3.9375 0-7.671875 1.644531-10.25 4.507813-2.582031 2.867187-3.824219 6.761718-3.410157 10.675781l11.960938 113.953125h-132.390625zm17.425781-87.410156h72.386719v66.84375h-72c3.695313-3.59375 5.933594-8.597657 5.933594-13.929688v-38.585937c-.003907-5.570313-2.367188-10.722656-6.320313-14.328125zm10.847656 245.070312h-65.445312v-30.953125h65.445312zm0-45.953125h-67.734374c-7.011719 0-12.710938 5.707032-12.710938 12.722656v35.511719c0 7.015625 5.703125 12.722657 12.710938 12.722657h67.734374v17.375h-189.074218v-89.441407h189.074218zm117.925782 78.332032h-102.925782v-89.441407h4.789063c2.386719 0 4.613281-.675781 6.523437-1.824219v67.734376c0 4.144531 3.359376 7.5 7.5 7.5 4.144532 0 7.5-3.355469 7.5-7.5v-94.0625c0-4.140626-3.355468-7.5-7.5-7.5-.449218 0-.886718.046874-1.3125.121093v-12.699219c0-7.015624-5.703124-12.722656-12.710937-12.722656h-48.0625v-7.347656h133.960937l12.238282 116.613281zm92.195312 0h-77.195312v-34.039063h77.195312zm0 0"/><path d="m338.828125 360.617188c-4.140625 0-7.5 3.359374-7.5 7.5v94.066406c0 4.140625 3.359375 7.5 7.5 7.5 4.144531 0 7.5-3.359375 7.5-7.5v-94.066406c0-4.140626-3.355469-7.5-7.5-7.5zm0 0"/><path d="m309.417969 360.617188c-4.140625 0-7.5 3.359374-7.5 7.5v94.066406c0 4.140625 3.359375 7.5 7.5 7.5 4.144531 0 7.5-3.359375 7.5-7.5v-94.066406c0-4.140626-3.355469-7.5-7.5-7.5zm0 0"/><path d="m390.183594 288.902344v75.011718c0 6.894532 5.605468 12.5 12.5 12.5h30.078125c6.894531 0 12.5-5.605468 12.5-12.5v-75.011718c0-6.894532-5.605469-12.5-12.5-12.5h-30.078125c-6.894532 0-12.5 5.605468-12.5 12.5zm15 2.5h25.078125v70.011718h-25.078125zm0 0"/><path d="m429.570312 263.96875c4.144532 0 7.5-3.359375 7.5-7.5 0-4.144531-3.355468-7.5-7.5-7.5h-23.699218c-4.144532 0-7.5 3.355469-7.5 7.5 0 4.140625 3.355468 7.5 7.5 7.5zm0 0"/><path d="m75.304688 432.824219h9.378906c4.140625 0 7.5-3.359375 7.5-7.5 0-4.144531-3.359375-7.5-7.5-7.5h-9.378906c-4.140626 0-7.5 3.355469-7.5 7.5 0 4.140625 3.359374 7.5 7.5 7.5zm0 0"/><path d="m75.304688 455.800781h51.753906c4.140625 0 7.5-3.359375 7.5-7.5 0-4.144531-3.359375-7.5-7.5-7.5h-51.753906c-4.140626 0-7.5 3.355469-7.5 7.5 0 4.140625 3.359374 7.5 7.5 7.5zm0 0"/><path d="m104.480469 432.824219h22.574219c4.144531 0 7.5-3.359375 7.5-7.5 0-4.144531-3.355469-7.5-7.5-7.5h-22.574219c-4.140625 0-7.5 3.355469-7.5 7.5 0 4.140625 3.359375 7.5 7.5 7.5zm0 0"/><path d="m25.65625 240.257812 23.441406 18.164063c.230469.273437.515625.953125.542969 1.308594l-3.683594 29.339843c-.421875 3.347657.558594 6.652344 2.6875 9.066407 2.429688 2.75 6.195313 4.128906 10.019531 3.652343l29.476563-3.671874c.367187.027343 1.066406.316406 1.347656.558593l18.222657 23.351563c2.238281 2.867187 5.511718 4.511718 8.988281 4.511718 3.476562 0 6.75-1.644531 8.988281-4.511718l18.226562-23.351563c.277344-.242187.980469-.53125 1.34375-.558593l29.480469 3.675781c3.820313.476562 7.585938-.902344 10.015625-3.65625 2.128906-2.414063 3.109375-5.71875 2.6875-9.0625l-3.679687-29.34375c.027343-.355469.308593-1.035157.542969-1.308594l23.4375-18.164063c2.882812-2.234374 4.535156-5.515624 4.535156-8.992187 0-3.480469-1.652344-6.757813-4.535156-8.992187l-23.4375-18.164063c-.234376-.273437-.515626-.953125-.542969-1.3125l3.679687-29.339844c.421875-3.347656-.558594-6.648437-2.6875-9.0625-2.429687-2.753906-6.191406-4.132812-10.019531-3.65625l-29.476563 3.671875c-.367187-.027344-1.066406-.316406-1.34375-.554687l-18.226562-23.355469c-2.238281-2.867188-5.511719-4.511719-8.988281-4.511719-3.476563 0-6.753907 1.644531-8.988281 4.511719l-18.222657 23.355469c-.28125.238281-.980469.527343-1.34375.554687l-29.480469-3.675781c-3.820312-.476563-7.589843.902344-10.015624 3.65625-2.132813 2.414063-3.113282 5.71875-2.691407 9.0625l3.683594 29.34375c-.027344.355469-.308594 1.035156-.542969 1.308594l-23.441406 18.167969c-2.882812 2.234374-4.535156 5.511718-4.535156 8.988281 0 3.484375 1.652344 6.761719 4.535156 8.996093zm32.703125-24.347656c4.25-3.292968 6.84375-9.554687 6.175781-14.886718l-3.117187-24.828126 24.960937 3.113282c.5625.070312 1.144532.105468 1.730469.105468 4.945313 0 10.230469-2.515624 13.148437-6.257812l15.441407-19.792969 15.445312 19.792969c2.917969 3.742188 8.203125 6.257812 13.144531 6.257812.585938 0 1.167969-.035156 1.730469-.105468l24.960938-3.109375-3.117188 24.824219c-.667969 5.332031 1.929688 11.59375 6.175781 14.886718l19.816407 15.355469-19.816407 15.355469c-4.25 3.292968-6.84375 9.554687-6.175781 14.886718l3.117188 24.828126-24.960938-3.113282c-.5625-.070312-1.144531-.105468-1.730469-.105468-4.941406 0-10.226562 2.515624-13.144531 6.257812l-15.445312 19.789062-15.441407-19.789062c-2.921874-3.742188-8.203124-6.257812-13.148437-6.257812-.582031 0-1.164063.035156-1.726563.105468l-24.964843 3.109375 3.117187-24.824219c.671875-5.332031-1.925781-11.59375-6.175781-14.886718l-19.816406-15.355469zm0 0"/><path d="m124.304688 249.398438c0 12.472656 8.855468 22.617187 19.734374 22.617187 10.886719 0 19.742188-10.144531 19.742188-22.617187 0-12.464844-8.855469-22.609376-19.742188-22.609376-10.878906 0-19.734374 10.144532-19.734374 22.609376zm19.734374-7.609376c2.238282 0 4.742188 3.253907 4.742188 7.609376 0 4.359374-2.5 7.617187-4.742188 7.617187-2.234374 0-4.734374-3.257813-4.734374-7.617187 0-4.355469 2.5-7.609376 4.734374-7.609376zm0 0"/><path d="m89.359375 235.746094c10.882813 0 19.738281-10.144532 19.738281-22.613282 0-12.472656-8.855468-22.617187-19.738281-22.617187-10.886719 0-19.742187 10.144531-19.742187 22.617187 0 12.46875 8.859374 22.613282 19.742187 22.613282zm0-30.230469c2.238281 0 4.738281 3.257813 4.738281 7.613281 0 4.359375-2.5 7.617188-4.738281 7.617188s-4.742187-3.257813-4.742187-7.617188c0-4.355468 2.503906-7.613281 4.742187-7.613281zm0 0"/><path d="m98.953125 269.707031c1.039063.492188 2.136719.726563 3.214844.726563 2.804687 0 5.496093-1.578125 6.777343-4.28125l30.085938-63.332032c1.777344-3.742187.183594-8.214843-3.554688-9.992187-3.746093-1.773437-8.21875-.183594-9.996093 3.558594l-30.082031 63.328125c-1.777344 3.742187-.1875 8.214844 3.554687 9.992187zm0 0"/><path d="m421.140625 143.78125c30.871094 0 55.988281-25.15625 55.988281-56.074219s-25.117187-56.074219-55.988281-56.074219-55.988281 25.15625-55.988281 56.074219 25.117187 56.074219 55.988281 56.074219zm0-97.148438c22.601563 0 40.988281 18.425782 40.988281 41.074219 0 22.644531-18.386718 41.070313-40.988281 41.070313s-40.988281-18.425782-40.988281-41.070313c0-22.648437 18.386718-41.074219 40.988281-41.074219zm0 0"/><path d="m413.816406 94.703125h14.644532c1.378906 0 2.5 1.128906 2.5 2.515625s-1.121094 2.515625-2.5 2.515625h-22.175782c-4.144531 0-7.5 3.355469-7.5 7.5 0 4.140625 3.355469 7.5 7.5 7.5h7.355469v.234375c0 4.140625 3.355469 7.5 7.5 7.5 4.140625 0 7.5-3.359375 7.5-7.5v-.246094c9.566406-.09375 17.320313-7.90625 17.320313-17.503906 0-9.65625-7.851563-17.515625-17.5-17.515625h-14.648438c-1.375 0-2.496094-1.128906-2.496094-2.515625s1.121094-2.511719 2.496094-2.511719h18.730469c4.144531 0 7.5-3.359375 7.5-7.5 0-4.144531-3.355469-7.5-7.5-7.5h-3.902344v-2.261719c0-4.140624-3.359375-7.5-7.5-7.5-4.144531 0-7.5 3.359376-7.5 7.5v2.269532c-9.566406.097656-17.320313 7.90625-17.320313 17.503906 0 9.660156 7.847657 17.515625 17.496094 17.515625zm0 0"/></svg>